<?xml version="1.0" encoding="utf-8"?>
<!-- Generator: Adobe Illustrator 19.0.0, SVG Export Plug-In . SVG Version: 6.00 Build 0)  -->
<svg version="1.1" id="Layer_1" xmlns="http://www.w3.org/2000/svg" xmlns:xlink="http://www.w3.org/1999/xlink" x="0px" y="0px"
	 viewBox="131 -131 512 512" style="enable-background:new 131 -131 512 512;" xml:space="preserve">
<g id="XMLID_2_">
	<path id="XMLID_6_" d="M642.3,228.8c-3.9-11.8-20.4-28.3-18.9-51.1c2.4-22.8,20.4-74.7,15.7-96.7c-4.7-22-28.3-87.2-88.8-97.5
		c-60.5-10.2-104.5,6.3-128.1,5.5s-27.5-18.9-53.4-18.1c-33,0-39.3,14.1-62.9,21.2c-17.3,5.5-71.5,5.5-71.5,5.5S218.7-22.8,214-15
		c-4.7,7.1-11,25.9-11,25.9s-29.1,10.2-31.4,15.7c-2.4,5.5-6.3,14.1-6.3,14.1s-30.7,7.9-33.8,15.7c-3.1,7.1,13.4,25.2,18.9,30.7
		c5.5,6.3,67.6,7.1,77.8,14.9c10.2,7.1,37.7,12.6,53.4,15.7c29.1,4.7,41.7,62.9,49.5,126.5c-8.6,7.1-24.4,14.1-25.2,34.6H401
		c0,0,1.6-13.4,3.1-30.7c1.6-16.5,29.9-81,29.9-81s20.4,16.5,34.6,16.5c-1.6,12.6,4.7,26.7,4.7,26.7s12.6,14.9,24.4,25.9
		c-22,8.6-21.2,24.4-21.2,24.4l80.2,0.8c0,0,7.9-16.5,7.9-29.9c11,15.7,31.4,21.2,31.4,21.2l-11.8,25.2h49.5
		C632.8,278.3,646.2,240.5,642.3,228.8z M190.3,44.1c-3.1,0-6.3-3.1-6.3-6.3c0-3.1,3.1-6.3,6.3-6.3s6.3,3.1,6.3,6.3
		C197.4,40.9,194.3,44.1,190.3,44.1z"/>
</g>
</svg>
